{
    "asset" : {
        "generator" : "Khronos glTF Blender I/O v1.6.16",
        "version" : "2.0"
    },
    "scene" : 0,
    "scenes" : [
        {
            "name" : "Scene",
            "nodes" : [
                0,
                1,
                7
            ]
        }
    ],
    "nodes" : [
        {
            "name" : "Light",
            "rotation" : [
                0.16907575726509094,
                0.7558803558349609,
                -0.27217137813568115,
                0.570947527885437
            ],
            "translation" : [
                4.076245307922363,
                5.903861999511719,
                -1.0054539442062378
            ]
        },
        {
            "name" : "Camera",
            "rotation" : [
                0.483536034822464,
                0.33687159419059753,
                -0.20870360732078552,
                0.7804827094078064
            ],
            "translation" : [
                7.358891487121582,
                4.958309173583984,
                6.925790786743164
            ]
        },
        {
            "mesh" : 0,
            "name" : "Body10.001",
            "scale" : [
                10,
                10,
                10
            ]
        },
        {
            "mesh" : 1,
            "name" : "Body16.001",
            "scale" : [
                10,
                10,
                10
            ]
        },
        {
            "mesh" : 2,
            "name" : "Body20",
            "scale" : [
                10,
                10,
                10
            ]
        },
        {
            "mesh" : 3,
            "name" : "Body21",
            "scale" : [
                10,
                10,
                10
            ]
        },
        {
            "mesh" : 4,
            "name" : "Body22",
            "scale" : [
                10,
                10,
                10
            ]
        },
        {
            "children" : [
                2,
                3,
                4,
                5,
                6
            ],
            "name" : "slim-pad front v4 v53",
            "rotation" : [
                0.7071068286895752,
                0,
                0,
                0.7071067094802856
            ],
            "scale" : [
                0.0010000000474974513,
                0.0010000000474974513,
                0.0010000000474974513
            ]
        }
    ],
    "materials" : [
        {
            "doubleSided" : true,
            "name" : "Plastic - Matte (Black).001",
            "pbrMetallicRoughness" : {
                "baseColorFactor" : [
                    0.09803921729326248,
                    0.09803921729326248,
                    0.09803921729326248,
                    1
                ],
                "roughnessFactor" : 0.5527864098548889
            }
        },
        {
            "doubleSided" : true,
            "name" : "Aluminum - Anodized Glossy (Blue).001",
            "pbrMetallicRoughness" : {}
        }
    ],
    "meshes" : [
        {
            "name" : "Body10.001",
            "primitives" : [
                {
                    "attributes" : {
                        "POSITION" : 0,
                        "NORMAL" : 1,
                        "TEXCOORD_0" : 2
                    },
                    "indices" : 3,
                    "material" : 0
                }
            ]
        },
        {
            "name" : "Body16.001",
            "primitives" : [
                {
                    "attributes" : {
                        "POSITION" : 4,
                        "NORMAL" : 5,
                        "TEXCOORD_0" : 6
                    },
                    "indices" : 7,
                    "material" : 1
                }
            ]
        },
        {
            "name" : "Body20",
            "primitives" : [
                {
                    "attributes" : {
                        "POSITION" : 8,
                        "NORMAL" : 9,
                        "TEXCOORD_0" : 10
                    },
                    "indices" : 11,
                    "material" : 0
                }
            ]
        },
        {
            "name" : "Body21",
            "primitives" : [
                {
                    "attributes" : {
                        "POSITION" : 12,
                        "NORMAL" : 13,
                        "TEXCOORD_0" : 14
                    },
                    "indices" : 15,
                    "material" : 0
                }
            ]
        },
        {
            "name" : "Body22",
            "primitives" : [
                {
                    "attributes" : {
                        "POSITION" : 16,
                        "NORMAL" : 17,
                        "TEXCOORD_0" : 18
                    },
                    "indices" : 19,
                    "material" : 0
                }
            ]
        }
    ],
    "accessors" : [
        {
            "bufferView" : 0,
            "componentType" : 5126,
            "count" : 7881,
            "max" : [
                -10.45004940032959,
                7,
                2.0553171634674072
            ],
            "min" : [
                -23.04128646850586,
                -1.8154639207136271e-31,
                -17.30687713623047
            ],
            "type" : "VEC3"
        },
        {
            "bufferView" : 1,
            "componentType" : 5126,
            "count" : 7881,
            "type" : "VEC3"
        },
        {
            "bufferView" : 2,
            "componentType" : 5126,
            "count" : 7881,
            "type" : "VEC2"
        },
        {
            "bufferView" : 3,
            "componentType" : 5123,
            "count" : 36222,
            "type" : "SCALAR"
        },
        {
            "bufferView" : 4,
            "componentType" : 5126,
            "count" : 393,
            "max" : [
                -14.318285942077637,
                7,
                1.4509929418563843
            ],
            "min" : [
                -21.11663055419922,
                6.599999904632568,
                -5.345753192901611
            ],
            "type" : "VEC3"
        },
        {
            "bufferView" : 5,
            "componentType" : 5126,
            "count" : 393,
            "type" : "VEC3"
        },
        {
            "bufferView" : 6,
            "componentType" : 5126,
            "count" : 393,
            "type" : "VEC2"
        },
        {
            "bufferView" : 7,
            "componentType" : 5123,
            "count" : 1362,
            "type" : "SCALAR"
        },
        {
            "bufferView" : 8,
            "componentType" : 5126,
            "count" : 709,
            "max" : [
                -14.318285942077637,
                7.010000228881836,
                1.4509929418563843
            ],
            "min" : [
                -21.11663055419922,
                7,
                -5.345753192901611
            ],
            "type" : "VEC3"
        },
        {
            "bufferView" : 9,
            "componentType" : 5126,
            "count" : 709,
            "type" : "VEC3"
        },
        {
            "bufferView" : 10,
            "componentType" : 5126,
            "count" : 709,
            "type" : "VEC2"
        },
        {
            "bufferView" : 11,
            "componentType" : 5123,
            "count" : 2490,
            "type" : "SCALAR"
        },
        {
            "bufferView" : 12,
            "componentType" : 5126,
            "count" : 408,
            "max" : [
                -15.84361743927002,
                7.010000228881836,
                -1.171556830406189
            ],
            "min" : [
                -19.551301956176758,
                7,
                -3.9438581466674805
            ],
            "type" : "VEC3"
        },
        {
            "bufferView" : 13,
            "componentType" : 5126,
            "count" : 408,
            "type" : "VEC3"
        },
        {
            "bufferView" : 14,
            "componentType" : 5126,
            "count" : 408,
            "type" : "VEC2"
        },
        {
            "bufferView" : 15,
            "componentType" : 5123,
            "count" : 1380,
            "type" : "SCALAR"
        },
        {
            "bufferView" : 16,
            "componentType" : 5126,
            "count" : 331,
            "max" : [
                -16.150285720825195,
                7.010000228881836,
                -0.13155880570411682
            ],
            "min" : [
                -18.616947174072266,
                7,
                -2.9007833003997803
            ],
            "type" : "VEC3"
        },
        {
            "bufferView" : 17,
            "componentType" : 5126,
            "count" : 331,
            "type" : "VEC3"
        },
        {
            "bufferView" : 18,
            "componentType" : 5126,
            "count" : 331,
            "type" : "VEC2"
        },
        {
            "bufferView" : 19,
            "componentType" : 5123,
            "count" : 1038,
            "type" : "SCALAR"
        }
    ],
    "bufferViews" : [
        {
            "buffer" : 0,
            "byteLength" : 94572,
            "byteOffset" : 0
        },
        {
            "buffer" : 0,
            "byteLength" : 94572,
            "byteOffset" : 94572
        },
        {
            "buffer" : 0,
            "byteLength" : 63048,
            "byteOffset" : 189144
        },
        {
            "buffer" : 0,
            "byteLength" : 72444,
            "byteOffset" : 252192
        },
        {
            "buffer" : 0,
            "byteLength" : 4716,
            "byteOffset" : 324636
        },
        {
            "buffer" : 0,
            "byteLength" : 4716,
            "byteOffset" : 329352
        },
        {
            "buffer" : 0,
            "byteLength" : 3144,
            "byteOffset" : 334068
        },
        {
            "buffer" : 0,
            "byteLength" : 2724,
            "byteOffset" : 337212
        },
        {
            "buffer" : 0,
            "byteLength" : 8508,
            "byteOffset" : 339936
        },
        {
            "buffer" : 0,
            "byteLength" : 8508,
            "byteOffset" : 348444
        },
        {
            "buffer" : 0,
            "byteLength" : 5672,
            "byteOffset" : 356952
        },
        {
            "buffer" : 0,
            "byteLength" : 4980,
            "byteOffset" : 362624
        },
        {
            "buffer" : 0,
            "byteLength" : 4896,
            "byteOffset" : 367604
        },
        {
            "buffer" : 0,
            "byteLength" : 4896,
            "byteOffset" : 372500
        },
        {
            "buffer" : 0,
            "byteLength" : 3264,
            "byteOffset" : 377396
        },
        {
            "buffer" : 0,
            "byteLength" : 2760,
            "byteOffset" : 380660
        },
        {
            "buffer" : 0,
            "byteLength" : 3972,
            "byteOffset" : 383420
        },
        {
            "buffer" : 0,
            "byteLength" : 3972,
            "byteOffset" : 387392
        },
        {
            "buffer" : 0,
            "byteLength" : 2648,
            "byteOffset" : 391364
        },
        {
            "buffer" : 0,
            "byteLength" : 2076,
            "byteOffset" : 394012
        }
    ],
    "buffers" : [
        {
            "byteLength" : 396088,
            "uri" : "data:application/octet-stream;base64,"
        }
    ]
}
