{
    "asset" : {
        "generator" : "Khronos glTF Blender I/O v1.6.16",
        "version" : "2.0"
    },
    "scene" : 0,
    "scenes" : [
        {
            "name" : "Scene",
            "nodes" : [
                0,
                1,
                5
            ]
        }
    ],
    "nodes" : [
        {
            "name" : "Light",
            "rotation" : [
                0.16907575726509094,
                0.7558803558349609,
                -0.27217137813568115,
                0.570947527885437
            ],
            "translation" : [
                4.076245307922363,
                5.903861999511719,
                -1.0054539442062378
            ]
        },
        {
            "name" : "Camera",
            "rotation" : [
                0.483536034822464,
                0.33687159419059753,
                -0.20870360732078552,
                0.7804827094078064
            ],
            "translation" : [
                7.358891487121582,
                4.958309173583984,
                6.925790786743164
            ]
        },
        {
            "mesh" : 0,
            "name" : "Body11",
            "scale" : [
                10,
                10,
                10
            ]
        },
        {
            "mesh" : 1,
            "name" : "Body5",
            "scale" : [
                10,
                10,
                10
            ]
        },
        {
            "mesh" : 2,
            "name" : "Body9",
            "scale" : [
                10,
                10,
                10
            ]
        },
        {
            "children" : [
                2,
                3,
                4
            ],
            "name" : "hinge front v2 v12",
            "rotation" : [
                0.7071068286895752,
                0,
                0,
                0.7071067094802856
            ]
        }
    ],
    "materials" : [
        {
            "doubleSided" : true,
            "name" : "Aluminum - Anodized Glossy (Blue)",
            "pbrMetallicRoughness" : {
                "baseColorFactor" : [
                    0.3490196168422699,
                    0.5843137502670288,
                    0.8549019694328308,
                    1
                ],
                "roughnessFactor" : 0.5527864098548889
            }
        },
        {
            "doubleSided" : true,
            "name" : "Rubber - Soft",
            "pbrMetallicRoughness" : {
                "baseColorFactor" : [
                    0.15294118225574493,
                    0.15294118225574493,
                    0.15294118225574493,
                    1
                ],
                "roughnessFactor" : 0.5527864098548889
            }
        }
    ],
    "meshes" : [
        {
            "name" : "Body11",
            "primitives" : [
                {
                    "attributes" : {
                        "POSITION" : 0,
                        "NORMAL" : 1,
                        "TEXCOORD_0" : 2
                    },
                    "indices" : 3,
                    "material" : 0
                }
            ]
        },
        {
            "name" : "Body5",
            "primitives" : [
                {
                    "attributes" : {
                        "POSITION" : 4,
                        "NORMAL" : 5,
                        "TEXCOORD_0" : 6
                    },
                    "indices" : 7,
                    "material" : 1
                }
            ]
        },
        {
            "name" : "Body9",
            "primitives" : [
                {
                    "attributes" : {
                        "POSITION" : 8,
                        "NORMAL" : 9,
                        "TEXCOORD_0" : 10
                    },
                    "indices" : 11,
                    "material" : 1
                }
            ]
        }
    ],
    "accessors" : [
        {
            "bufferView" : 0,
            "componentType" : 5126,
            "count" : 778,
            "max" : [
                -8.237001419067383,
                7.048999786376953,
                4.3955979347229
            ],
            "min" : [
                -14.877473831176758,
                6.849999904632568,
                0.32517707347869873
            ],
            "type" : "VEC3"
        },
        {
            "bufferView" : 1,
            "componentType" : 5126,
            "count" : 778,
            "type" : "VEC3"
        },
        {
            "bufferView" : 2,
            "componentType" : 5126,
            "count" : 778,
            "type" : "VEC2"
        },
        {
            "bufferView" : 3,
            "componentType" : 5123,
            "count" : 2760,
            "type" : "SCALAR"
        },
        {
            "bufferView" : 4,
            "componentType" : 5126,
            "count" : 7187,
            "max" : [
                -3.2433745861053467,
                7.050000190734863,
                5.820697784423828
            ],
            "min" : [
                -16.473716735839844,
                0,
                -14.381670951843262
            ],
            "type" : "VEC3"
        },
        {
            "bufferView" : 5,
            "componentType" : 5126,
            "count" : 7187,
            "type" : "VEC3"
        },
        {
            "bufferView" : 6,
            "componentType" : 5126,
            "count" : 7187,
            "type" : "VEC2"
        },
        {
            "bufferView" : 7,
            "componentType" : 5123,
            "count" : 33396,
            "type" : "SCALAR"
        },
        {
            "bufferView" : 8,
            "componentType" : 5126,
            "count" : 1017,
            "max" : [
                -7.740213871002197,
                7.050000190734863,
                4.88917350769043
            ],
            "min" : [
                -15.374260902404785,
                6.650000095367432,
                -0.16839885711669922
            ],
            "type" : "VEC3"
        },
        {
            "bufferView" : 9,
            "componentType" : 5126,
            "count" : 1017,
            "type" : "VEC3"
        },
        {
            "bufferView" : 10,
            "componentType" : 5126,
            "count" : 1017,
            "type" : "VEC2"
        },
        {
            "bufferView" : 11,
            "componentType" : 5123,
            "count" : 3582,
            "type" : "SCALAR"
        }
    ],
    "bufferViews" : [
        {
            "buffer" : 0,
            "byteLength" : 9336,
            "byteOffset" : 0
        },
        {
            "buffer" : 0,
            "byteLength" : 9336,
            "byteOffset" : 9336
        },
        {
            "buffer" : 0,
            "byteLength" : 6224,
            "byteOffset" : 18672
        },
        {
            "buffer" : 0,
            "byteLength" : 5520,
            "byteOffset" : 24896
        },
        {
            "buffer" : 0,
            "byteLength" : 86244,
            "byteOffset" : 30416
        },
        {
            "buffer" : 0,
            "byteLength" : 86244,
            "byteOffset" : 116660
        },
        {
            "buffer" : 0,
            "byteLength" : 57496,
            "byteOffset" : 202904
        },
        {
            "buffer" : 0,
            "byteLength" : 66792,
            "byteOffset" : 260400
        },
        {
            "buffer" : 0,
            "byteLength" : 12204,
            "byteOffset" : 327192
        },
        {
            "buffer" : 0,
            "byteLength" : 12204,
            "byteOffset" : 339396
        },
        {
            "buffer" : 0,
            "byteLength" : 8136,
            "byteOffset" : 351600
        },
        {
            "buffer" : 0,
            "byteLength" : 7164,
            "byteOffset" : 359736
        }
    ],
    "buffers" : [
        {
            "byteLength" : 366900,
            "uri" : "data:application/octet-stream;base64,"
        }
    ]
}
