{
    "asset" : {
        "generator" : "Khronos glTF Blender I/O v1.6.16",
        "version" : "2.0"
    },
    "scene" : 0,
    "scenes" : [
        {
            "name" : "Scene",
            "nodes" : [
                2,
                6
            ]
        }
    ],
    "nodes" : [
        {
            "mesh" : 0,
            "name" : "Body5.001",
            "scale" : [
                10,
                10,
                10
            ],
            "translation" : [
                -12.270087242126465,
                0,
                0.45444759726524353
            ]
        },
        {
            "mesh" : 1,
            "name" : "Body6",
            "scale" : [
                10,
                10,
                10
            ],
            "translation" : [
                -12.270087242126465,
                0,
                0.45444759726524353
            ]
        },
        {
            "children" : [
                0,
                1
            ],
            "name" : "back hinge split pad v9",
            "rotation" : [
                0.7071068286895752,
                0,
                0,
                0.7071067094802856
            ],
            "scale" : [
                0.0010000000474974513,
                0.0010000000474974513,
                0.0010000000474974513
            ],
            "translation" : [
                0.08861729502677917,
                0.06316821277141571,
                0
            ]
        },
        {
            "mesh" : 2,
            "name" : "Body11",
            "scale" : [
                10,
                10,
                10
            ],
            "translation" : [
                40.44582748413086,
                0,
                -58.169288635253906
            ]
        },
        {
            "mesh" : 3,
            "name" : "Body5",
            "scale" : [
                10,
                10,
                10
            ],
            "translation" : [
                40.44582748413086,
                0,
                -58.169288635253906
            ]
        },
        {
            "mesh" : 4,
            "name" : "Body9",
            "scale" : [
                10,
                10,
                10
            ],
            "translation" : [
                40.44582748413086,
                0,
                -58.169288635253906
            ]
        },
        {
            "children" : [
                3,
                4,
                5
            ],
            "name" : "hinge front v2 v12",
            "rotation" : [
                0.7071068286895752,
                0,
                0,
                0.7071067094802856
            ],
            "scale" : [
                0.0010000000474974513,
                0.0010000000474974513,
                0.0010000000474974513
            ]
        }
    ],
    "materials" : [
        {
            "doubleSided" : true,
            "name" : "Rubber - Soft.001",
            "pbrMetallicRoughness" : {
                "baseColorFactor" : [
                    0.15294118225574493,
                    0.15294118225574493,
                    0.15294118225574493,
                    1
                ],
                "roughnessFactor" : 0.5527864098548889
            }
        },
        {
            "doubleSided" : true,
            "name" : "Aluminum - Anodized Glossy (Blue).001",
            "pbrMetallicRoughness" : {
                "baseColorFactor" : [
                    0.3490196168422699,
                    0.5843137502670288,
                    0.8549019694328308,
                    1
                ],
                "roughnessFactor" : 0.5527864098548889
            }
        },
        {
            "doubleSided" : true,
            "name" : "Aluminum - Anodized Glossy (Blue)",
            "pbrMetallicRoughness" : {
                "baseColorFactor" : [
                    0.3490196168422699,
                    0.5843137502670288,
                    0.8549019694328308,
                    1
                ],
                "roughnessFactor" : 0.5527864098548889
            }
        },
        {
            "doubleSided" : true,
            "name" : "Rubber - Soft",
            "pbrMetallicRoughness" : {
                "baseColorFactor" : [
                    0.15294118225574493,
                    0.15294118225574493,
                    0.15294118225574493,
                    1
                ],
                "roughnessFactor" : 0.5527864098548889
            }
        }
    ],
    "meshes" : [
        {
            "name" : "Body5.001",
            "primitives" : [
                {
                    "attributes" : {
                        "POSITION" : 0,
                        "NORMAL" : 1,
                        "TEXCOORD_0" : 2
                    },
                    "indices" : 3,
                    "material" : 0
                }
            ]
        },
        {
            "name" : "Body6",
            "primitives" : [
                {
                    "attributes" : {
                        "POSITION" : 4,
                        "NORMAL" : 5,
                        "TEXCOORD_0" : 6
                    },
                    "indices" : 7,
                    "material" : 1
                }
            ]
        },
        {
            "name" : "Body11",
            "primitives" : [
                {
                    "attributes" : {
                        "POSITION" : 8,
                        "NORMAL" : 9,
                        "TEXCOORD_0" : 10
                    },
                    "indices" : 11,
                    "material" : 2
                }
            ]
        },
        {
            "name" : "Body5",
            "primitives" : [
                {
                    "attributes" : {
                        "POSITION" : 12,
                        "NORMAL" : 13,
                        "TEXCOORD_0" : 14
                    },
                    "indices" : 15,
                    "material" : 3
                }
            ]
        },
        {
            "name" : "Body9",
            "primitives" : [
                {
                    "attributes" : {
                        "POSITION" : 16,
                        "NORMAL" : 17,
                        "TEXCOORD_0" : 18
                    },
                    "indices" : 19,
                    "material" : 3
                }
            ]
        }
    ],
    "accessors" : [
        {
            "bufferView" : 0,
            "componentType" : 5126,
            "count" : 6819,
            "max" : [
                3.6802220344543457,
                7.050000190734863,
                4.092668533325195
            ],
            "min" : [
                -8.342137336730957,
                -1.1102230246251565e-16,
                -14.109533309936523
            ],
            "type" : "VEC3"
        },
        {
            "bufferView" : 1,
            "componentType" : 5126,
            "count" : 6819,
            "type" : "VEC3"
        },
        {
            "bufferView" : 2,
            "componentType" : 5126,
            "count" : 6819,
            "type" : "VEC2"
        },
        {
            "bufferView" : 3,
            "componentType" : 5123,
            "count" : 31704,
            "type" : "SCALAR"
        },
        {
            "bufferView" : 4,
            "componentType" : 5126,
            "count" : 210,
            "max" : [
                1.4269758462905884,
                7,
                3.2678415775299072
            ],
            "min" : [
                0.12831342220306396,
                6.599999904632568,
                -0.4232518970966339
            ],
            "type" : "VEC3"
        },
        {
            "bufferView" : 5,
            "componentType" : 5126,
            "count" : 210,
            "type" : "VEC3"
        },
        {
            "bufferView" : 6,
            "componentType" : 5126,
            "count" : 210,
            "type" : "VEC2"
        },
        {
            "bufferView" : 7,
            "componentType" : 5123,
            "count" : 720,
            "type" : "SCALAR"
        },
        {
            "bufferView" : 8,
            "componentType" : 5126,
            "count" : 778,
            "max" : [
                -8.237001419067383,
                7.048999786376953,
                4.3955979347229
            ],
            "min" : [
                -14.877473831176758,
                6.849999904632568,
                0.32517707347869873
            ],
            "type" : "VEC3"
        },
        {
            "bufferView" : 9,
            "componentType" : 5126,
            "count" : 778,
            "type" : "VEC3"
        },
        {
            "bufferView" : 10,
            "componentType" : 5126,
            "count" : 778,
            "type" : "VEC2"
        },
        {
            "bufferView" : 11,
            "componentType" : 5123,
            "count" : 2760,
            "type" : "SCALAR"
        },
        {
            "bufferView" : 12,
            "componentType" : 5126,
            "count" : 7187,
            "max" : [
                -3.2433745861053467,
                7.050000190734863,
                5.820697784423828
            ],
            "min" : [
                -16.473716735839844,
                0,
                -14.381670951843262
            ],
            "type" : "VEC3"
        },
        {
            "bufferView" : 13,
            "componentType" : 5126,
            "count" : 7187,
            "type" : "VEC3"
        },
        {
            "bufferView" : 14,
            "componentType" : 5126,
            "count" : 7187,
            "type" : "VEC2"
        },
        {
            "bufferView" : 15,
            "componentType" : 5123,
            "count" : 33396,
            "type" : "SCALAR"
        },
        {
            "bufferView" : 16,
            "componentType" : 5126,
            "count" : 1017,
            "max" : [
                -7.740213871002197,
                7.050000190734863,
                4.88917350769043
            ],
            "min" : [
                -15.374260902404785,
                6.650000095367432,
                -0.16839885711669922
            ],
            "type" : "VEC3"
        },
        {
            "bufferView" : 17,
            "componentType" : 5126,
            "count" : 1017,
            "type" : "VEC3"
        },
        {
            "bufferView" : 18,
            "componentType" : 5126,
            "count" : 1017,
            "type" : "VEC2"
        },
        {
            "bufferView" : 19,
            "componentType" : 5123,
            "count" : 3582,
            "type" : "SCALAR"
        }
    ],
    "bufferViews" : [
        {
            "buffer" : 0,
            "byteLength" : 81828,
            "byteOffset" : 0
        },
        {
            "buffer" : 0,
            "byteLength" : 81828,
            "byteOffset" : 81828
        },
        {
            "buffer" : 0,
            "byteLength" : 54552,
            "byteOffset" : 163656
        },
        {
            "buffer" : 0,
            "byteLength" : 63408,
            "byteOffset" : 218208
        },
        {
            "buffer" : 0,
            "byteLength" : 2520,
            "byteOffset" : 281616
        },
        {
            "buffer" : 0,
            "byteLength" : 2520,
            "byteOffset" : 284136
        },
        {
            "buffer" : 0,
            "byteLength" : 1680,
            "byteOffset" : 286656
        },
        {
            "buffer" : 0,
            "byteLength" : 1440,
            "byteOffset" : 288336
        },
        {
            "buffer" : 0,
            "byteLength" : 9336,
            "byteOffset" : 289776
        },
        {
            "buffer" : 0,
            "byteLength" : 9336,
            "byteOffset" : 299112
        },
        {
            "buffer" : 0,
            "byteLength" : 6224,
            "byteOffset" : 308448
        },
        {
            "buffer" : 0,
            "byteLength" : 5520,
            "byteOffset" : 314672
        },
        {
            "buffer" : 0,
            "byteLength" : 86244,
            "byteOffset" : 320192
        },
        {
            "buffer" : 0,
            "byteLength" : 86244,
            "byteOffset" : 406436
        },
        {
            "buffer" : 0,
            "byteLength" : 57496,
            "byteOffset" : 492680
        },
        {
            "buffer" : 0,
            "byteLength" : 66792,
            "byteOffset" : 550176
        },
        {
            "buffer" : 0,
            "byteLength" : 12204,
            "byteOffset" : 616968
        },
        {
            "buffer" : 0,
            "byteLength" : 12204,
            "byteOffset" : 629172
        },
        {
            "buffer" : 0,
            "byteLength" : 8136,
            "byteOffset" : 641376
        },
        {
            "buffer" : 0,
            "byteLength" : 7164,
            "byteOffset" : 649512
        }
    ],
    "buffers" : [
        {
            "byteLength" : 656676,
            "uri" : "data:application/octet-stream;base64,"
        }
    ]
}
