<svg version="1.1" id="Warstwa_1" xmlns="http://www.w3.org/2000/svg" x="0" y="0" viewBox="0 0 261.7 225" xml:space="preserve">
  <style>
    .st0{fill:#fff}
  </style>
  <path id="XMLID_17_" d="M261.7 112.1c0 30.7-11.8 59.3-30.8 79.5-19 20.2-45.2 33.5-74.1 33.5H40V0h116.8c57.7 0 104.9 50.7 104.9 112.1z"/>
  <circle id="XMLID_2_" class="st0" cx="148.5" cy="112.5" r="72.5"/>
  <circle id="XMLID_3_" cx="148.5" cy="112.5" r="39.5"/>
  <path id="XMLID_4_" class="st0" d="M148 185H21.5c-.3 0-.5-.2-.5-.5v-16c0-.3.2-.5.5-.5H148c.3 0 .5.2.5.5v16c0 .3-.2.5-.5.5z"/>
  <path id="XMLID_21_" d="M0 185h104v40H0z"/>
</svg>